# Blender v2.79 (sub 0) OBJ File: 'host.blend'
# www.blender.org
mtllib host.mtl
o Cube_Cube.001
v -9.000000 -1.000000 6.300000
v -9.000000 -0.900000 7.000000
v -10.000000 -0.900000 6.300000
v -9.000000 -0.986640 6.649540
v -9.499344 -0.986640 6.300000
v -9.478211 -0.973663 6.634748
v -9.499344 -0.900000 6.906483
v -9.000000 -0.949934 6.906483
v -9.478211 -0.947821 6.815643
v -9.866404 -0.949934 6.300000
v -9.866404 -0.900000 6.649540
v -9.736632 -0.947821 6.634748
v -9.000000 0.900000 7.000000
v -9.000000 1.000000 6.300000
v -10.000000 0.900000 6.300000
v -9.000000 0.949934 6.906483
v -9.499344 0.900000 6.906483
v -9.478211 0.947821 6.815643
v -9.499344 0.986640 6.300000
v -9.000000 0.986640 6.649540
v -9.478211 0.973663 6.634748
v -9.866404 0.900000 6.649540
v -9.866404 0.949934 6.300000
v -9.736632 0.947821 6.634748
v -9.000000 -1.000000 -6.300000
v -10.000000 -0.900000 -6.300000
v -9.000000 -0.900000 -7.000000
v -9.499344 -0.986640 -6.300000
v -9.000000 -0.986640 -6.649540
v -9.478211 -0.973663 -6.634748
v -9.866404 -0.900000 -6.649540
v -9.866404 -0.949934 -6.300000
v -9.736632 -0.947821 -6.634748
v -9.000000 -0.949934 -6.906483
v -9.499344 -0.900000 -6.906483
v -9.478211 -0.947821 -6.815643
v -9.000000 1.000000 -6.300000
v -9.000000 0.900000 -7.000000
v -10.000000 0.900000 -6.300000
v -9.000000 0.986640 -6.649540
v -9.499344 0.986640 -6.300000
v -9.478211 0.973663 -6.634748
v -9.499344 0.900000 -6.906483
v -9.000000 0.949934 -6.906483
v -9.478211 0.947821 -6.815643
v -9.866404 0.949934 -6.300000
v -9.866404 0.900000 -6.649540
v -9.736632 0.947821 -6.634748
v 9.000000 -1.000000 6.300000
v 10.000000 -0.900000 6.300000
v 9.000000 -0.900000 7.000000
v 9.499344 -0.986640 6.300000
v 9.000000 -0.986640 6.649540
v 9.478211 -0.973663 6.634748
v 9.866404 -0.900000 6.649540
v 9.866404 -0.949934 6.300000
v 9.736632 -0.947821 6.634748
v 9.000000 -0.949934 6.906483
v 9.499344 -0.900000 6.906483
v 9.478211 -0.947821 6.815643
v 9.000000 1.000000 6.300000
v 9.000000 0.900000 7.000000
v 10.000000 0.900000 6.300000
v 9.000000 0.986640 6.649540
v 9.499344 0.986640 6.300000
v 9.478211 0.973663 6.634748
v 9.499344 0.900000 6.906483
v 9.000000 0.949934 6.906483
v 9.478211 0.947821 6.815643
v 9.866404 0.949934 6.300000
v 9.866404 0.900000 6.649540
v 9.736632 0.947821 6.634748
v 9.000000 -1.000000 -6.300000
v 9.000000 -0.900000 -7.000000
v 10.000000 -0.900000 -6.300000
v 9.000000 -0.986640 -6.649540
v 9.499344 -0.986640 -6.300000
v 9.478211 -0.973663 -6.634748
v 9.499344 -0.900000 -6.906483
v 9.000000 -0.949934 -6.906483
v 9.478211 -0.947821 -6.815643
v 9.866404 -0.949934 -6.300000
v 9.866404 -0.900000 -6.649540
v 9.736632 -0.947821 -6.634748
v 9.000000 1.000000 -6.300000
v 10.000000 0.900000 -6.300000
v 9.000000 0.900000 -7.000000
v 9.499344 0.986640 -6.300000
v 9.000000 0.986640 -6.649540
v 9.478211 0.973663 -6.634748
v 9.866404 0.900000 -6.649540
v 9.866404 0.949934 -6.300000
v 9.736632 0.947821 -6.634748
v 9.000000 0.949934 -6.906483
v 9.499344 0.900000 -6.906483
v 9.478211 0.947821 -6.815643
v -9.000000 0.077538 -5.882803
v -9.000000 0.274678 -5.779017
v -10.000000 0.182560 -6.431450
v -9.000000 0.139652 -5.813838
v -9.489941 0.107176 -5.941063
v -9.498222 0.153989 -5.860587
v -9.489941 0.246618 -5.867654
v -9.000000 0.211790 -5.775861
v -9.498222 0.198613 -5.837094
v -9.852213 0.145223 -6.139823
v -9.852213 0.213247 -6.104012
v -9.764544 0.177438 -5.954678
v -9.000000 13.065649 -12.671563
v -9.000000 13.067919 -12.882802
v -10.000000 12.506326 -13.072237
v -9.000000 13.102816 -12.733649
v -9.487858 12.889584 -12.679468
v -9.490895 13.015130 -12.767525
v -9.487859 12.893665 -13.059325
v -9.000000 13.103340 -12.782502
v -9.490896 13.015917 -12.840814
v -9.853605 12.685014 -12.826013
v -9.853603 12.688265 -13.128610
v -9.766031 12.871481 -12.880002
v -9.000000 -0.727591 -7.184359
v -10.000000 -0.165999 -6.994924
v -9.000000 -0.725321 -7.395598
v -9.487858 -0.553337 -7.007837
v -9.000000 -0.763014 -7.284659
v -9.490895 -0.675591 -7.226349
v -9.853603 -0.344686 -7.241149
v -9.853603 -0.347937 -6.938552
v -9.766031 -0.531154 -7.187162
v -9.000000 -0.762489 -7.333510
v -9.487859 -0.549255 -7.387693
v -9.490896 -0.674803 -7.299635
v -9.000000 12.262789 -14.184359
v -9.000000 12.065649 -14.288142
v -10.000000 12.157766 -13.635711
v -9.000000 12.200675 -14.253324
v -9.489941 12.233150 -14.126098
v -9.498222 12.186338 -14.206575
v -9.489941 12.093708 -14.199506
v -9.000000 12.128538 -14.291302
v -9.498222 12.141712 -14.230065
v -9.852211 12.195103 -13.927339
v -9.852214 12.127081 -13.963146
v -9.764544 12.162888 -14.112482
v 9.000000 0.077538 -5.882803
v 10.000000 0.182560 -6.431450
v 9.000000 0.274678 -5.779017
v 9.489941 0.107176 -5.941064
v 8.999999 0.139652 -5.813838
v 9.498222 0.153989 -5.860587
v 9.852213 0.213246 -6.104012
v 9.852213 0.145223 -6.139823
v 9.764544 0.177438 -5.954678
v 8.999998 0.211790 -5.775861
v 9.489941 0.246618 -5.867654
v 9.498222 0.198613 -5.837094
v 9.000000 13.067919 -12.882801
v 9.000000 13.065649 -12.671563
v 10.000000 12.506326 -13.072237
v 9.000000 13.103341 -12.782502
v 9.487859 12.893665 -13.059324
v 9.490896 13.015917 -12.840814
v 9.487859 12.889584 -12.679469
v 9.000000 13.102816 -12.733649
v 9.490896 13.015131 -12.767525
v 9.853603 12.688265 -13.128609
v 9.853602 12.685014 -12.826013
v 9.766030 12.871481 -12.879999
v 9.000000 -0.727591 -7.184359
v 9.000000 -0.725321 -7.395598
v 10.000000 -0.165999 -6.994924
v 9.000000 -0.763014 -7.284659
v 9.487859 -0.553336 -7.007837
v 9.490896 -0.675591 -7.226349
v 9.487859 -0.549256 -7.387693
v 9.000000 -0.762489 -7.333511
v 9.490896 -0.674804 -7.299636
v 9.853603 -0.347937 -6.938552
v 9.853603 -0.344687 -7.241149
v 9.766031 -0.531154 -7.187161
v 9.000000 12.262789 -14.184359
v 10.000000 12.157766 -13.635711
v 9.000000 12.065649 -14.288144
v 9.489940 12.233150 -14.126098
v 9.000000 12.200675 -14.253324
v 9.498222 12.186337 -14.206573
v 9.852214 12.127081 -13.963147
v 9.852211 12.195103 -13.927339
v 9.764544 12.162889 -14.112484
v 9.000001 12.128538 -14.291298
v 9.489942 12.093710 -14.199507
v 9.498223 12.141714 -14.230065
vn 0.0000 0.0000 1.0000
vn 1.0000 0.0000 0.0000
vn 0.0000 -0.8504 0.5261
vn 0.0000 1.0000 0.0000
vn -1.0000 0.0000 0.0000
vn 0.0000 0.0000 -1.0000
vn 0.0000 0.4744 0.8803
vn 0.0000 0.8504 -0.5261
vn -0.0000 -0.4744 -0.8803
vn -0.0275 -0.9988 0.0393
vn -0.0312 -0.9895 0.1414
vn -0.0884 -0.8842 0.4587
vn -0.2774 -0.8753 0.3962
vn -0.3383 -0.9316 0.1331
vn -0.0994 -0.9940 0.0448
vn -0.0985 -0.9851 0.1407
vn -0.0884 0.8842 0.4587
vn -0.0312 0.9895 0.1414
vn -0.0275 0.9988 0.0393
vn -0.0994 0.9940 0.0448
vn -0.3383 0.9316 0.1331
vn -0.2774 0.8753 0.3962
vn -0.0985 0.9851 0.1407
vn -0.0275 -0.9988 -0.0393
vn -0.0994 -0.9940 -0.0448
vn -0.3383 -0.9316 -0.1331
vn -0.2774 -0.8753 -0.3962
vn -0.0884 -0.8842 -0.4587
vn -0.0312 -0.9895 -0.1414
vn -0.0985 -0.9851 -0.1407
vn -0.0275 0.9988 -0.0393
vn -0.0312 0.9895 -0.1414
vn -0.0884 0.8842 -0.4587
vn -0.2774 0.8753 -0.3962
vn -0.3383 0.9316 -0.1331
vn -0.0994 0.9940 -0.0448
vn -0.0985 0.9851 -0.1407
vn 0.0275 -0.9988 0.0393
vn 0.0994 -0.9940 0.0448
vn 0.3383 -0.9316 0.1331
vn 0.2774 -0.8753 0.3962
vn 0.0884 -0.8842 0.4587
vn 0.0312 -0.9895 0.1414
vn 0.0985 -0.9851 0.1407
vn 0.0275 0.9988 0.0393
vn 0.0312 0.9895 0.1414
vn 0.0884 0.8842 0.4587
vn 0.2774 0.8753 0.3962
vn 0.3383 0.9316 0.1331
vn 0.0994 0.9940 0.0448
vn 0.0985 0.9851 0.1407
vn 0.0275 -0.9988 -0.0393
vn 0.0312 -0.9895 -0.1414
vn 0.0884 -0.8842 -0.4587
vn 0.2774 -0.8753 -0.3962
vn 0.3383 -0.9316 -0.1331
vn 0.0994 -0.9940 -0.0448
vn 0.0985 -0.9851 -0.1407
vn 0.0275 0.9988 -0.0393
vn 0.0994 0.9940 -0.0448
vn 0.3383 0.9316 -0.1331
vn 0.2774 0.8753 -0.3962
vn 0.0884 0.8842 -0.4587
vn 0.0312 0.9895 -0.1414
vn 0.0985 0.9851 -0.1407
vn -0.0978 -0.8068 0.5827
vn -0.0960 -0.4637 0.8808
vn -0.1553 0.2980 0.9419
vn -0.3599 0.7748 0.5198
vn -0.8744 -0.2260 0.4294
vn -0.2487 -0.9055 0.3437
vn -0.3334 -0.4392 0.8342
vn -0.2089 0.6611 0.7207
vn -0.1765 0.9842 0.0106
vn -0.1317 0.8881 -0.4405
vn -0.3630 0.8086 -0.4631
vn -0.8434 0.5373 0.0058
vn -0.5372 0.4657 0.7032
vn -0.4659 0.8848 0.0095
vn -0.1317 -0.8881 0.4405
vn -0.3630 -0.8086 0.4631
vn -0.8434 -0.5373 -0.0058
vn -0.5372 -0.4657 -0.7032
vn -0.2089 -0.6611 -0.7206
vn -0.1765 -0.9842 -0.0106
vn -0.4658 -0.8848 -0.0095
vn -0.0978 0.8068 -0.5827
vn -0.0960 0.4637 -0.8808
vn -0.1553 -0.2980 -0.9419
vn -0.3599 -0.7748 -0.5198
vn -0.8744 0.2261 -0.4294
vn -0.2487 0.9055 -0.3438
vn -0.3334 0.4391 -0.8343
vn 0.0978 -0.8068 0.5827
vn 0.2487 -0.9055 0.3437
vn 0.8744 -0.2261 0.4294
vn 0.3599 0.7748 0.5198
vn 0.1553 0.2980 0.9419
vn 0.0960 -0.4637 0.8808
vn 0.3334 -0.4392 0.8342
vn 0.1317 0.8881 -0.4405
vn 0.1765 0.9842 0.0106
vn 0.2089 0.6611 0.7207
vn 0.5372 0.4657 0.7032
vn 0.8433 0.5373 0.0058
vn 0.3630 0.8086 -0.4631
vn 0.4659 0.8848 0.0095
vn 0.1317 -0.8881 0.4405
vn 0.1765 -0.9842 -0.0106
vn 0.2089 -0.6611 -0.7207
vn 0.5372 -0.4657 -0.7032
vn 0.8434 -0.5373 -0.0058
vn 0.3630 -0.8086 0.4631
vn 0.4658 -0.8848 -0.0095
vn 0.0978 0.8068 -0.5826
vn 0.2487 0.9055 -0.3437
vn 0.8744 0.2261 -0.4294
vn 0.3599 -0.7748 -0.5198
vn 0.1553 -0.2979 -0.9419
vn 0.0960 0.4637 -0.8808
vn 0.3334 0.4392 -0.8342
vn -0.0267 -0.9996 0.0000
vn -0.0995 -0.9950 0.0000
vn -0.3501 -0.9367 0.0000
vn -0.1841 0.0000 0.9829
vn -0.5735 0.0000 0.8192
vn -0.9341 0.0000 0.3570
vn -0.0267 0.9996 0.0000
vn -0.0995 0.9950 0.0000
vn -0.3501 0.9367 0.0000
vn -0.1841 0.0000 -0.9829
vn -0.5735 0.0000 -0.8192
vn -0.9341 0.0000 -0.3570
vn 0.0000 -0.9993 -0.0382
vn 0.0000 -0.9899 -0.1414
vn 0.0000 -0.8821 -0.4710
vn 0.0000 0.9993 -0.0382
vn 0.0000 0.9899 -0.1414
vn 0.0000 0.8821 -0.4710
vn 0.9341 0.0000 -0.3570
vn 0.5735 0.0000 -0.8192
vn 0.1841 0.0000 -0.9829
vn 0.0267 -0.9996 0.0000
vn 0.0995 -0.9950 0.0000
vn 0.3501 -0.9367 0.0000
vn 0.0267 0.9996 0.0000
vn 0.0995 0.9950 0.0000
vn 0.3501 0.9367 0.0000
vn 0.1841 0.0000 0.9829
vn 0.5735 0.0000 0.8192
vn 0.9341 0.0000 0.3570
vn 0.0000 -0.9993 0.0382
vn 0.0000 -0.9899 0.1414
vn 0.0000 -0.8821 0.4710
vn 0.0000 0.9993 0.0382
vn 0.0000 0.9899 0.1414
vn 0.0000 0.8821 0.4710
vn -0.1130 -0.8449 0.5228
vn -0.3535 -0.7956 0.4919
vn -0.7825 -0.5294 0.3279
vn -0.1828 0.4664 0.8655
vn -0.5257 0.4035 0.7488
vn -0.8991 0.2076 0.3853
vn -0.1130 0.8449 -0.5228
vn -0.3535 0.7956 -0.4919
vn -0.7825 0.5294 -0.3279
vn -0.1828 -0.4664 -0.8655
vn -0.5257 -0.4035 -0.7488
vn -0.8991 -0.2076 -0.3853
vn 0.0000 -0.9429 0.3330
vn -0.0000 -0.9999 -0.0107
vn -0.0000 -0.8580 -0.5136
vn 0.0000 0.7431 -0.6692
vn 0.0000 0.4658 -0.8849
vn 0.0000 -0.0501 -0.9987
vn 0.8991 -0.2076 -0.3853
vn 0.5257 -0.4035 -0.7488
vn 0.1828 -0.4664 -0.8655
vn 0.1130 -0.8449 0.5228
vn 0.3535 -0.7956 0.4919
vn 0.7825 -0.5294 0.3279
vn 0.1130 0.8449 -0.5228
vn 0.3535 0.7956 -0.4919
vn 0.7825 0.5294 -0.3279
vn 0.1828 0.4664 0.8655
vn 0.5257 0.4035 0.7488
vn 0.8991 0.2076 0.3853
vn -0.0000 -0.7431 0.6692
vn 0.0000 -0.4658 0.8849
vn -0.0000 0.0501 0.9987
vn 0.0000 0.9429 -0.3330
vn -0.0000 0.9999 0.0107
vn 0.0000 0.8580 0.5136
vn 0.0000 -1.0000 0.0000
usemtl None
s off
f 51//1 62//1 13//1 2//1
f 75//2 86//2 63//2 50//2
f 121//3 169//3 145//3 97//3
f 85//4 37//4 14//4 61//4
f 3//5 15//5 39//5 26//5
f 27//6 38//6 87//6 74//6
f 147//7 158//7 109//7 98//7
f 171//2 182//2 159//2 146//2
f 181//8 133//8 110//8 157//8
f 99//5 111//5 135//5 122//5
f 123//9 134//9 183//9 170//9
f 1//10 4//10 6//10 5//10
f 4//11 8//11 9//11 6//11
f 2//12 7//12 9//12 8//12
f 7//13 11//13 12//13 9//13
f 3//14 10//14 12//14 11//14
f 10//15 5//15 6//15 12//15
f 6//16 9//16 12//16
f 13//17 16//17 18//17 17//17
f 16//18 20//18 21//18 18//18
f 14//19 19//19 21//19 20//19
f 19//20 23//20 24//20 21//20
f 15//21 22//21 24//21 23//21
f 22//22 17//22 18//22 24//22
f 18//23 21//23 24//23
f 25//24 28//24 30//24 29//24
f 28//25 32//25 33//25 30//25
f 26//26 31//26 33//26 32//26
f 31//27 35//27 36//27 33//27
f 27//28 34//28 36//28 35//28
f 34//29 29//29 30//29 36//29
f 30//30 33//30 36//30
f 37//31 40//31 42//31 41//31
f 40//32 44//32 45//32 42//32
f 38//33 43//33 45//33 44//33
f 43//34 47//34 48//34 45//34
f 39//35 46//35 48//35 47//35
f 46//36 41//36 42//36 48//36
f 42//37 45//37 48//37
f 49//38 52//38 54//38 53//38
f 52//39 56//39 57//39 54//39
f 50//40 55//40 57//40 56//40
f 55//41 59//41 60//41 57//41
f 51//42 58//42 60//42 59//42
f 58//43 53//43 54//43 60//43
f 54//44 57//44 60//44
f 61//45 64//45 66//45 65//45
f 64//46 68//46 69//46 66//46
f 62//47 67//47 69//47 68//47
f 67//48 71//48 72//48 69//48
f 63//49 70//49 72//49 71//49
f 70//50 65//50 66//50 72//50
f 66//51 69//51 72//51
f 73//52 76//52 78//52 77//52
f 76//53 80//53 81//53 78//53
f 74//54 79//54 81//54 80//54
f 79//55 83//55 84//55 81//55
f 75//56 82//56 84//56 83//56
f 82//57 77//57 78//57 84//57
f 78//58 81//58 84//58
f 85//59 88//59 90//59 89//59
f 88//60 92//60 93//60 90//60
f 86//61 91//61 93//61 92//61
f 91//62 95//62 96//62 93//62
f 87//63 94//63 96//63 95//63
f 94//64 89//64 90//64 96//64
f 90//65 93//65 96//65
f 97//66 100//66 102//66 101//66
f 100//67 104//67 105//67 102//67
f 98//68 103//68 105//68 104//68
f 103//69 107//69 108//69 105//69
f 99//70 106//70 108//70 107//70
f 106//71 101//71 102//71 108//71
f 102//72 105//72 108//72
f 109//73 112//73 114//73 113//73
f 112//74 116//74 117//74 114//74
f 110//75 115//75 117//75 116//75
f 115//76 119//76 120//76 117//76
f 111//77 118//77 120//77 119//77
f 118//78 113//78 114//78 120//78
f 114//79 117//79 120//79
f 121//80 124//80 126//80 125//80
f 124//81 128//81 129//81 126//81
f 122//82 127//82 129//82 128//82
f 127//83 131//83 132//83 129//83
f 123//84 130//84 132//84 131//84
f 130//85 125//85 126//85 132//85
f 126//86 129//86 132//86
f 133//87 136//87 138//87 137//87
f 136//88 140//88 141//88 138//88
f 134//89 139//89 141//89 140//89
f 139//90 143//90 144//90 141//90
f 135//91 142//91 144//91 143//91
f 142//92 137//92 138//92 144//92
f 138//93 141//93 144//93
f 145//94 148//94 150//94 149//94
f 148//95 152//95 153//95 150//95
f 146//96 151//96 153//96 152//96
f 151//97 155//97 156//97 153//97
f 147//98 154//98 156//98 155//98
f 154//99 149//99 150//99 156//99
f 150//100 153//100 156//100
f 157//101 160//101 162//101 161//101
f 160//102 164//102 165//102 162//102
f 158//103 163//103 165//103 164//103
f 163//104 167//104 168//104 165//104
f 159//105 166//105 168//105 167//105
f 166//106 161//106 162//106 168//106
f 162//107 165//107 168//107
f 169//108 172//108 174//108 173//108
f 172//109 176//109 177//109 174//109
f 170//110 175//110 177//110 176//110
f 175//111 179//111 180//111 177//111
f 171//112 178//112 180//112 179//112
f 178//113 173//113 174//113 180//113
f 174//114 177//114 180//114
f 181//115 184//115 186//115 185//115
f 184//116 188//116 189//116 186//116
f 182//117 187//117 189//117 188//117
f 187//118 191//118 192//118 189//118
f 183//119 190//119 192//119 191//119
f 190//120 185//120 186//120 192//120
f 186//121 189//121 192//121
f 25//122 1//122 5//122 28//122
f 28//123 5//123 10//123 32//123
f 32//124 10//124 3//124 26//124
f 2//125 13//125 17//125 7//125
f 7//126 17//126 22//126 11//126
f 11//127 22//127 15//127 3//127
f 14//128 37//128 41//128 19//128
f 19//129 41//129 46//129 23//129
f 23//130 46//130 39//130 15//130
f 38//131 27//131 35//131 43//131
f 43//132 35//132 31//132 47//132
f 47//133 31//133 26//133 39//133
f 73//134 25//134 29//134 76//134
f 76//135 29//135 34//135 80//135
f 80//136 34//136 27//136 74//136
f 37//137 85//137 89//137 40//137
f 40//138 89//138 94//138 44//138
f 44//139 94//139 87//139 38//139
f 86//140 75//140 83//140 91//140
f 91//141 83//141 79//141 95//141
f 95//142 79//142 74//142 87//142
f 49//143 73//143 77//143 52//143
f 52//144 77//144 82//144 56//144
f 56//145 82//145 75//145 50//145
f 85//146 61//146 65//146 88//146
f 88//147 65//147 70//147 92//147
f 92//148 70//148 63//148 86//148
f 62//149 51//149 59//149 67//149
f 67//150 59//150 55//150 71//150
f 71//151 55//151 50//151 63//151
f 1//152 49//152 53//152 4//152
f 4//153 53//153 58//153 8//153
f 8//154 58//154 51//154 2//154
f 61//155 14//155 20//155 64//155
f 64//156 20//156 16//156 68//156
f 68//157 16//157 13//157 62//157
f 121//158 97//158 101//158 124//158
f 124//159 101//159 106//159 128//159
f 128//160 106//160 99//160 122//160
f 98//161 109//161 113//161 103//161
f 103//162 113//162 118//162 107//162
f 107//163 118//163 111//163 99//163
f 110//164 133//164 137//164 115//164
f 115//165 137//165 142//165 119//165
f 119//166 142//166 135//166 111//166
f 134//167 123//167 131//167 139//167
f 139//168 131//168 127//168 143//168
f 143//169 127//169 122//169 135//169
f 169//170 121//170 125//170 172//170
f 172//171 125//171 130//171 176//171
f 176//172 130//172 123//172 170//172
f 133//173 181//173 185//173 136//173
f 136//174 185//174 190//174 140//174
f 140//175 190//175 183//175 134//175
f 182//176 171//176 179//176 187//176
f 187//177 179//177 175//177 191//177
f 191//178 175//178 170//178 183//178
f 145//179 169//179 173//179 148//179
f 148//180 173//180 178//180 152//180
f 152//181 178//181 171//181 146//181
f 181//182 157//182 161//182 184//182
f 184//183 161//183 166//183 188//183
f 188//184 166//184 159//184 182//184
f 158//185 147//185 155//185 163//185
f 163//186 155//186 151//186 167//186
f 167//187 151//187 146//187 159//187
f 97//188 145//188 149//188 100//188
f 100//189 149//189 154//189 104//189
f 104//190 154//190 147//190 98//190
f 157//191 110//191 116//191 160//191
f 160//192 116//192 112//192 164//192
f 164//193 112//193 109//193 158//193
f 25//194 73//194 49//194 1//194
