# Blender v2.79 (sub 0) OBJ File: 'host.blend'
# www.blender.org
mtllib host.mtl
o Cube.004
v -1.000000 -2.150000 0.409130
v -1.000000 2.850000 0.409130
v -1.000000 -2.150000 -1.590870
v -1.000000 2.850000 -1.590870
v 1.000000 -2.150000 0.409130
v 1.000000 2.850000 0.409130
v 1.000000 -2.150000 -1.590870
v 1.000000 2.850000 -1.590870
v -8.000000 -4.150000 2.409130
v -8.000000 -2.150000 2.409130
v -8.000000 -4.150000 -3.590870
v -8.000000 -2.150000 -3.590870
v 8.000000 -4.150000 2.409130
v 8.000000 -2.150000 2.409130
v 8.000000 -4.150000 -3.590870
v 8.000000 -2.150000 -3.590870
v -10.000000 2.850000 6.909129
v -10.000000 17.850000 6.909129
v -10.000000 2.849999 -8.090869
v -10.000000 17.850000 -3.688618
v 10.000000 2.850000 6.909129
v 10.000000 17.850000 6.909129
v 10.000000 2.849999 -8.090869
v 10.000000 17.850000 -4.403328
v 15.000000 -3.149999 15.567369
v 15.000000 16.850000 15.567369
v 15.000000 -3.150000 -4.432629
v 15.000000 16.850000 -4.432629
v 25.000000 -3.149999 15.567369
v 25.000000 16.850000 15.567369
v 25.000000 -3.150000 -4.432629
v 25.000000 16.850000 -4.432629
v 10.000000 -4.149999 10.317830
v 10.000000 -4.149999 20.317829
v -10.000001 -4.149999 20.317827
v -9.999996 -4.149999 10.317827
v 10.000005 1.065202 10.317833
v 9.999993 -2.149999 20.317831
v -10.000004 -2.149999 20.317827
v -9.999999 0.857000 10.317829
vn -1.0000 0.0000 0.0000
vn 0.0000 0.0000 -1.0000
vn 1.0000 0.0000 0.0000
vn 0.0000 0.0000 1.0000
vn 0.0000 -1.0000 0.0000
vn 0.0000 1.0000 0.0000
vn -0.0172 0.2603 -0.9654
vn -0.0050 0.9548 0.2971
usemtl Material
s off
f 1//1 2//1 4//1 3//1
f 3//2 4//2 8//2 7//2
f 7//3 8//3 6//3 5//3
f 5//4 6//4 2//4 1//4
f 3//5 7//5 5//5 1//5
f 8//6 4//6 2//6 6//6
f 9//1 10//1 12//1 11//1
f 11//2 12//2 16//2 15//2
f 15//3 16//3 14//3 13//3
f 13//4 14//4 10//4 9//4
f 11//5 15//5 13//5 9//5
f 16//6 12//6 10//6 14//6
f 17//1 18//1 20//1 19//1
f 19//7 20//7 24//7 23//7
f 23//3 24//3 22//3 21//3
f 21//4 22//4 18//4 17//4
f 19//5 23//5 21//5 17//5
f 24//6 20//6 18//6 22//6
f 25//1 26//1 28//1 27//1
f 27//2 28//2 32//2 31//2
f 31//3 32//3 30//3 29//3
f 29//4 30//4 26//4 25//4
f 27//5 31//5 29//5 25//5
f 32//6 28//6 26//6 30//6
f 33//5 34//5 35//5 36//5
f 37//8 40//8 39//8 38//8
f 33//3 37//3 38//3 34//3
f 34//4 38//4 39//4 35//4
f 35//1 39//1 40//1 36//1
f 37//2 33//2 36//2 40//2
