# Blender v2.79 (sub 0) OBJ File: 'router.blend'
# www.blender.org
mtllib router.mtl
o Router
v 0.500000 -0.066025 -0.850000
v 1.500000 1.666025 -0.850000
v 0.516895 -0.075780 -0.848079
v 1.516895 1.656271 -0.848079
v 0.533141 -0.085160 -0.842388
v 1.533141 1.646891 -0.842388
v 0.548114 -0.093804 -0.833147
v 1.548114 1.638247 -0.833147
v 0.561237 -0.101381 -0.820711
v 1.561237 1.630670 -0.820711
v 0.572007 -0.107599 -0.805557
v 1.572007 1.624452 -0.805557
v 0.580010 -0.112219 -0.788268
v 1.580010 1.619831 -0.788268
v 0.584939 -0.115065 -0.769509
v 1.584939 1.616986 -0.769509
v 0.586603 -0.116025 -0.750000
v 1.586603 1.616025 -0.750000
v 0.584939 -0.115065 -0.730491
v 1.584939 1.616986 -0.730491
v 0.580010 -0.112219 -0.711732
v 1.580010 1.619831 -0.711732
v 0.572007 -0.107599 -0.694443
v 1.572007 1.624452 -0.694443
v 0.561237 -0.101381 -0.679289
v 1.561237 1.630670 -0.679289
v 0.548114 -0.093804 -0.666853
v 1.548114 1.638247 -0.666853
v 0.533141 -0.085160 -0.657612
v 1.533141 1.646891 -0.657612
v 0.516895 -0.075780 -0.651921
v 1.516895 1.656271 -0.651921
v 0.500000 -0.066025 -0.650000
v 1.500000 1.666025 -0.650000
v 0.483105 -0.056271 -0.651922
v 1.483105 1.675780 -0.651922
v 0.466859 -0.046891 -0.657612
v 1.466859 1.685160 -0.657612
v 0.451886 -0.038247 -0.666853
v 1.451886 1.693804 -0.666853
v 0.438763 -0.030670 -0.679289
v 1.438763 1.701381 -0.679289
v 0.427993 -0.024452 -0.694443
v 1.427993 1.707599 -0.694443
v 0.419990 -0.019831 -0.711732
v 1.419990 1.712219 -0.711732
v 0.415061 -0.016986 -0.730491
v 1.415061 1.715065 -0.730491
v 0.413397 -0.016025 -0.750000
v 1.413397 1.716025 -0.750000
v 0.415062 -0.016986 -0.769509
v 1.415061 1.715065 -0.769509
v 0.419990 -0.019831 -0.788268
v 1.419990 1.712219 -0.788268
v 0.427993 -0.024452 -0.805557
v 1.427993 1.707599 -0.805557
v 0.438763 -0.030670 -0.820711
v 1.438763 1.701381 -0.820711
v 0.451886 -0.038247 -0.833147
v 1.451886 1.693804 -0.833147
v 0.466859 -0.046891 -0.842388
v 1.466859 1.685159 -0.842388
v 0.483105 -0.056271 -0.848079
v 1.483105 1.675780 -0.848079
v 1.000000 -0.450000 -1.000000
v 1.000000 -0.450000 1.000000
v -1.000000 -0.450000 1.000000
v -1.000000 -0.450000 -1.000000
v 1.000000 0.050000 -0.999999
v 0.999999 0.050000 1.000001
v -1.000000 0.050000 1.000000
v -1.000000 0.050000 -1.000000
v -0.500000 -0.066025 -0.850000
v -1.500000 1.666025 -0.850000
v -0.483105 -0.056271 -0.848079
v -1.483104 1.675780 -0.848079
v -0.466859 -0.046891 -0.842388
v -1.466858 1.685160 -0.842388
v -0.451886 -0.038247 -0.833147
v -1.451886 1.693804 -0.833147
v -0.438763 -0.030670 -0.820711
v -1.438762 1.701381 -0.820711
v -0.427993 -0.024452 -0.805557
v -1.427993 1.707599 -0.805557
v -0.419990 -0.019831 -0.788268
v -1.419990 1.712219 -0.788268
v -0.415061 -0.016986 -0.769509
v -1.415061 1.715065 -0.769509
v -0.413397 -0.016025 -0.750000
v -1.413397 1.716025 -0.750000
v -0.415061 -0.016986 -0.730491
v -1.415061 1.715065 -0.730491
v -0.419990 -0.019831 -0.711732
v -1.419990 1.712219 -0.711732
v -0.427993 -0.024452 -0.694443
v -1.427993 1.707599 -0.694443
v -0.438763 -0.030670 -0.679289
v -1.438762 1.701381 -0.679289
v -0.451886 -0.038247 -0.666853
v -1.451886 1.693804 -0.666853
v -0.466859 -0.046891 -0.657612
v -1.466858 1.685160 -0.657612
v -0.483105 -0.056271 -0.651922
v -1.483105 1.675780 -0.651922
v -0.500000 -0.066025 -0.650000
v -1.500000 1.666025 -0.650000
v -0.516895 -0.075780 -0.651922
v -1.516895 1.656271 -0.651922
v -0.533141 -0.085160 -0.657612
v -1.533141 1.646891 -0.657612
v -0.548114 -0.093804 -0.666853
v -1.548114 1.638247 -0.666853
v -0.561237 -0.101381 -0.679289
v -1.561237 1.630670 -0.679289
v -0.572007 -0.107599 -0.694443
v -1.572007 1.624452 -0.694443
v -0.580010 -0.112220 -0.711732
v -1.580010 1.619831 -0.711732
v -0.584939 -0.115065 -0.730491
v -1.584938 1.616986 -0.730491
v -0.586602 -0.116025 -0.750000
v -1.586602 1.616025 -0.750000
v -0.584939 -0.115065 -0.769509
v -1.584938 1.616986 -0.769509
v -0.580010 -0.112219 -0.788269
v -1.580010 1.619831 -0.788269
v -0.572007 -0.107599 -0.805557
v -1.572007 1.624452 -0.805557
v -0.561237 -0.101381 -0.820711
v -1.561237 1.630670 -0.820711
v -0.548114 -0.093804 -0.833147
v -1.548114 1.638247 -0.833147
v -0.533141 -0.085159 -0.842388
v -1.533141 1.646891 -0.842388
v -0.516895 -0.075780 -0.848079
v -1.516895 1.656271 -0.848079
vn 0.0849 -0.0490 -0.9952
vn 0.2514 -0.1451 -0.9569
vn 0.4082 -0.2357 -0.8819
vn 0.5494 -0.3172 -0.7730
vn 0.6694 -0.3865 -0.6344
vn 0.7638 -0.4410 -0.4714
vn 0.8287 -0.4785 -0.2903
vn 0.8619 -0.4976 -0.0980
vn 0.8619 -0.4976 0.0980
vn 0.8287 -0.4785 0.2903
vn 0.7638 -0.4410 0.4714
vn 0.6694 -0.3865 0.6344
vn 0.5494 -0.3172 0.7730
vn 0.4082 -0.2357 0.8819
vn 0.2514 -0.1451 0.9569
vn 0.0849 -0.0490 0.9952
vn -0.0849 0.0490 0.9952
vn -0.2514 0.1451 0.9569
vn -0.4082 0.2357 0.8819
vn -0.5494 0.3172 0.7730
vn -0.6695 0.3865 0.6344
vn -0.7638 0.4410 0.4714
vn -0.8287 0.4785 0.2903
vn -0.8619 0.4976 0.0980
vn -0.8619 0.4976 -0.0980
vn -0.8287 0.4785 -0.2903
vn -0.7638 0.4410 -0.4714
vn -0.6694 0.3865 -0.6344
vn -0.5494 0.3172 -0.7730
vn -0.4082 0.2357 -0.8819
vn 0.5000 0.8660 -0.0000
vn -0.2514 0.1451 -0.9569
vn -0.0849 0.0490 -0.9952
vn -0.5000 -0.8660 0.0000
vn -0.0000 -1.0000 -0.0000
vn 0.0000 1.0000 -0.0000
vn 1.0000 0.0000 0.0000
vn -0.0000 -0.0000 1.0000
vn -1.0000 -0.0000 -0.0000
vn 0.0000 0.0000 -1.0000
vn 0.0849 0.0490 -0.9952
vn 0.2514 0.1451 -0.9569
vn 0.4082 0.2357 -0.8819
vn 0.5494 0.3172 -0.7730
vn 0.6695 0.3865 -0.6344
vn 0.7638 0.4410 -0.4714
vn 0.8287 0.4785 -0.2903
vn 0.8619 0.4976 -0.0980
vn 0.8619 0.4976 0.0980
vn 0.8287 0.4785 0.2903
vn 0.7638 0.4410 0.4714
vn 0.6694 0.3865 0.6344
vn 0.5494 0.3172 0.7730
vn 0.4082 0.2357 0.8819
vn 0.2514 0.1451 0.9569
vn 0.0849 0.0490 0.9952
vn -0.0849 -0.0490 0.9952
vn -0.2514 -0.1451 0.9569
vn -0.4082 -0.2357 0.8819
vn -0.5494 -0.3172 0.7730
vn -0.6694 -0.3865 0.6344
vn -0.7638 -0.4410 0.4714
vn -0.8287 -0.4785 0.2903
vn -0.8619 -0.4976 0.0980
vn -0.8619 -0.4976 -0.0980
vn -0.8287 -0.4785 -0.2903
vn -0.7638 -0.4410 -0.4714
vn -0.6694 -0.3865 -0.6344
vn -0.5494 -0.3172 -0.7730
vn -0.4082 -0.2357 -0.8819
vn -0.5000 0.8660 0.0000
vn -0.2514 -0.1451 -0.9569
vn -0.0849 -0.0490 -0.9952
vn 0.5000 -0.8660 0.0000
usemtl RouterMaterial
s off
f 1//1 2//1 4//1 3//1
f 3//2 4//2 6//2 5//2
f 5//3 6//3 8//3 7//3
f 7//4 8//4 10//4 9//4
f 9//5 10//5 12//5 11//5
f 11//6 12//6 14//6 13//6
f 13//7 14//7 16//7 15//7
f 15//8 16//8 18//8 17//8
f 17//9 18//9 20//9 19//9
f 19//10 20//10 22//10 21//10
f 21//11 22//11 24//11 23//11
f 23//12 24//12 26//12 25//12
f 25//13 26//13 28//13 27//13
f 27//14 28//14 30//14 29//14
f 29//15 30//15 32//15 31//15
f 31//16 32//16 34//16 33//16
f 33//17 34//17 36//17 35//17
f 35//18 36//18 38//18 37//18
f 37//19 38//19 40//19 39//19
f 39//20 40//20 42//20 41//20
f 41//21 42//21 44//21 43//21
f 43//22 44//22 46//22 45//22
f 45//23 46//23 48//23 47//23
f 47//24 48//24 50//24 49//24
f 49//25 50//25 52//25 51//25
f 51//26 52//26 54//26 53//26
f 53//27 54//27 56//27 55//27
f 55//28 56//28 58//28 57//28
f 57//29 58//29 60//29 59//29
f 59//30 60//30 62//30 61//30
f 4//31 2//31 64//31 62//31 60//31 58//31 56//31 54//31 52//31 50//31 48//31 46//31 44//31 42//31 40//31 38//31 36//31 34//31 32//31 30//31 28//31 26//31 24//31 22//31 20//31 18//31 16//31 14//31 12//31 10//31 8//31 6//31
f 61//32 62//32 64//32 63//32
f 63//33 64//33 2//33 1//33
f 1//34 3//34 5//34 7//34 9//34 11//34 13//34 15//34 17//34 19//34 21//34 23//34 25//34 27//34 29//34 31//34 33//34 35//34 37//34 39//34 41//34 43//34 45//34 47//34 49//34 51//34 53//34 55//34 57//34 59//34 61//34 63//34
f 65//35 66//35 67//35 68//35
f 69//36 72//36 71//36 70//36
f 65//37 69//37 70//37 66//37
f 66//38 70//38 71//38 67//38
f 67//39 71//39 72//39 68//39
f 69//40 65//40 68//40 72//40
f 73//41 74//41 76//41 75//41
f 75//42 76//42 78//42 77//42
f 77//43 78//43 80//43 79//43
f 79//44 80//44 82//44 81//44
f 81//45 82//45 84//45 83//45
f 83//46 84//46 86//46 85//46
f 85//47 86//47 88//47 87//47
f 87//48 88//48 90//48 89//48
f 89//49 90//49 92//49 91//49
f 91//50 92//50 94//50 93//50
f 93//51 94//51 96//51 95//51
f 95//52 96//52 98//52 97//52
f 97//53 98//53 100//53 99//53
f 99//54 100//54 102//54 101//54
f 101//55 102//55 104//55 103//55
f 103//56 104//56 106//56 105//56
f 105//57 106//57 108//57 107//57
f 107//58 108//58 110//58 109//58
f 109//59 110//59 112//59 111//59
f 111//60 112//60 114//60 113//60
f 113//61 114//61 116//61 115//61
f 115//62 116//62 118//62 117//62
f 117//63 118//63 120//63 119//63
f 119//64 120//64 122//64 121//64
f 121//65 122//65 124//65 123//65
f 123//66 124//66 126//66 125//66
f 125//67 126//67 128//67 127//67
f 127//68 128//68 130//68 129//68
f 129//69 130//69 132//69 131//69
f 131//70 132//70 134//70 133//70
f 76//71 74//71 136//71 134//71 132//71 130//71 128//71 126//71 124//71 122//71 120//71 118//71 116//71 114//71 112//71 110//71 108//71 106//71 104//71 102//71 100//71 98//71 96//71 94//71 92//71 90//71 88//71 86//71 84//71 82//71 80//71 78//71
f 133//72 134//72 136//72 135//72
f 135//73 136//73 74//73 73//73
f 73//74 75//74 77//74 79//74 81//74 83//74 85//74 87//74 89//74 91//74 93//74 95//74 97//74 99//74 101//74 103//74 105//74 107//74 109//74 111//74 113//74 115//74 117//74 119//74 121//74 123//74 125//74 127//74 129//74 131//74 133//74 135//74
