# Blender v2.79 (sub 0) OBJ File: 'router.blend'
# www.blender.org
mtllib router.mtl
o Router
v 3.727016 1.812084 -6.828614
v 13.727016 19.132591 -6.828614
v 3.895969 1.714539 -6.809400
v 13.895969 19.035046 -6.809400
v 4.058430 1.620743 -6.752494
v 14.058430 18.941250 -6.752494
v 4.208154 1.534299 -6.660084
v 14.208155 18.854805 -6.660084
v 4.339389 1.458530 -6.535721
v 14.339389 18.779037 -6.535721
v 4.447090 1.396349 -6.384184
v 14.447090 18.716856 -6.384184
v 4.527120 1.350144 -6.211298
v 14.527120 18.670650 -6.211298
v 4.576401 1.321692 -6.023705
v 14.576401 18.642199 -6.023705
v 4.593042 1.312084 -5.828614
v 14.593042 18.632591 -5.828614
v 4.576401 1.321692 -5.633524
v 14.576401 18.642199 -5.633524
v 4.527120 1.350144 -5.445931
v 14.527120 18.670650 -5.445931
v 4.447090 1.396349 -5.273044
v 14.447090 18.716856 -5.273044
v 4.339389 1.458530 -5.121508
v 14.339389 18.779037 -5.121508
v 4.208154 1.534299 -4.997145
v 14.208155 18.854805 -4.997145
v 4.058430 1.620743 -4.904735
v 14.058430 18.941250 -4.904735
v 3.895969 1.714540 -4.847829
v 13.895969 19.035046 -4.847829
v 3.727016 1.812084 -4.828614
v 13.727016 19.132591 -4.828614
v 3.558063 1.909630 -4.847829
v 13.558064 19.230137 -4.847829
v 3.395603 2.003427 -4.904735
v 13.395603 19.323933 -4.904735
v 3.245878 2.089869 -4.997145
v 13.245878 19.410378 -4.997145
v 3.114644 2.165638 -5.121508
v 13.114643 19.486145 -5.121508
v 3.006942 2.227819 -5.273045
v 13.006943 19.548326 -5.273045
v 2.926913 2.274024 -5.445931
v 12.926913 19.594532 -5.445931
v 2.877631 2.302477 -5.633525
v 12.877631 19.622984 -5.633525
v 2.860991 2.312084 -5.828615
v 12.860991 19.632591 -5.828615
v 2.877632 2.302477 -6.023705
v 12.877632 19.622984 -6.023705
v 2.926914 2.274024 -6.211299
v 12.926914 19.594532 -6.211299
v 3.006943 2.227818 -6.384185
v 13.006943 19.548325 -6.384185
v 3.114645 2.165637 -6.535722
v 13.114645 19.486145 -6.535722
v 3.245880 2.089869 -6.660085
v 13.245880 19.410376 -6.660085
v 3.395604 2.003426 -6.752494
v 13.395604 19.323933 -6.752494
v 3.558064 1.909629 -6.809400
v 13.558064 19.230137 -6.809400
v 8.727016 -2.027664 -8.328613
v 8.727016 -2.027664 11.671386
v -11.272985 -2.027663 11.671384
v -11.272980 -2.027661 -8.328619
v 8.727020 2.972336 -8.328609
v 8.727010 2.972336 11.671391
v -11.272987 2.972338 11.671382
v -11.272984 2.972338 -8.328615
v -6.272984 1.812084 -6.828615
v -16.272982 19.132591 -6.828615
v -6.104030 1.909629 -6.809400
v -16.104029 19.230137 -6.809400
v -5.941570 2.003427 -6.752494
v -15.941568 19.323933 -6.752494
v -5.791845 2.089869 -6.660084
v -15.791843 19.410378 -6.660084
v -5.660610 2.165637 -6.535721
v -15.660608 19.486145 -6.535721
v -5.552909 2.227819 -6.384185
v -15.552908 19.548325 -6.384185
v -5.472879 2.274023 -6.211298
v -15.472879 19.594532 -6.211298
v -5.423597 2.302477 -6.023705
v -15.423597 19.622984 -6.023705
v -5.406958 2.312084 -5.828615
v -15.406956 19.632591 -5.828615
v -5.423597 2.302477 -5.633524
v -15.423597 19.622984 -5.633524
v -5.472879 2.274023 -5.445931
v -15.472879 19.594532 -5.445931
v -5.552909 2.227819 -5.273045
v -15.552908 19.548325 -5.273045
v -5.660610 2.165637 -5.121508
v -15.660608 19.486145 -5.121508
v -5.791845 2.089869 -4.997145
v -15.791845 19.410378 -4.997145
v -5.941570 2.003427 -4.904735
v -15.941568 19.323933 -4.904735
v -6.104031 1.909630 -4.847829
v -16.104031 19.230137 -4.847829
v -6.272984 1.812084 -4.828615
v -16.272982 19.132591 -4.828615
v -6.441936 1.714540 -4.847829
v -16.441935 19.035046 -4.847829
v -6.604397 1.620743 -4.904736
v -16.604397 18.941250 -4.904736
v -6.754122 1.534300 -4.997146
v -16.754120 18.854805 -4.997146
v -6.885357 1.458530 -5.121509
v -16.885355 18.779037 -5.121509
v -6.993057 1.396349 -5.273045
v -16.993055 18.716856 -5.273045
v -7.073087 1.350143 -5.445932
v -17.073084 18.670650 -5.445932
v -7.122368 1.321692 -5.633525
v -17.122366 18.642199 -5.633525
v -7.139009 1.312084 -5.828616
v -17.139008 18.632591 -5.828616
v -7.122368 1.321692 -6.023706
v -17.122366 18.642199 -6.023706
v -7.073086 1.350145 -6.211299
v -17.073084 18.670650 -6.211299
v -6.993055 1.396349 -6.384186
v -16.993055 18.716858 -6.384186
v -6.885355 1.458532 -6.535722
v -16.885353 18.779037 -6.535722
v -6.754120 1.534300 -6.660085
v -16.754118 18.854807 -6.660085
v -6.604396 1.620743 -6.752495
v -16.604395 18.941250 -6.752495
v -6.441935 1.714540 -6.809400
v -16.441933 19.035046 -6.809400
vn 0.0849 -0.0490 -0.9952
vn 0.2514 -0.1451 -0.9569
vn 0.4082 -0.2357 -0.8819
vn 0.5494 -0.3172 -0.7730
vn 0.6694 -0.3865 -0.6344
vn 0.7638 -0.4410 -0.4714
vn 0.8287 -0.4785 -0.2903
vn 0.8619 -0.4976 -0.0980
vn 0.8619 -0.4976 0.0980
vn 0.8287 -0.4785 0.2903
vn 0.7638 -0.4410 0.4714
vn 0.6694 -0.3865 0.6344
vn 0.5494 -0.3172 0.7730
vn 0.4082 -0.2357 0.8819
vn 0.2514 -0.1451 0.9569
vn 0.0849 -0.0490 0.9952
vn -0.0849 0.0490 0.9952
vn -0.2514 0.1451 0.9569
vn -0.4082 0.2357 0.8819
vn -0.5494 0.3172 0.7730
vn -0.6694 0.3865 0.6344
vn -0.7638 0.4410 0.4714
vn -0.8287 0.4785 0.2903
vn -0.8619 0.4976 0.0980
vn -0.8619 0.4976 -0.0980
vn -0.8287 0.4785 -0.2903
vn -0.7638 0.4410 -0.4714
vn -0.6694 0.3865 -0.6344
vn -0.5494 0.3172 -0.7730
vn -0.4082 0.2357 -0.8819
vn 0.5000 0.8660 -0.0000
vn -0.2514 0.1451 -0.9569
vn -0.0849 0.0490 -0.9952
vn -0.5000 -0.8660 0.0000
vn -0.0000 -1.0000 -0.0000
vn 0.0000 1.0000 0.0000
vn 1.0000 0.0000 0.0000
vn -0.0000 -0.0000 1.0000
vn -1.0000 -0.0000 -0.0000
vn 0.0000 0.0000 -1.0000
vn 0.0849 0.0490 -0.9952
vn 0.2514 0.1451 -0.9569
vn 0.4082 0.2357 -0.8819
vn 0.5494 0.3172 -0.7730
vn 0.6694 0.3865 -0.6344
vn 0.7638 0.4410 -0.4714
vn 0.8287 0.4785 -0.2903
vn 0.8619 0.4976 -0.0980
vn 0.8619 0.4976 0.0980
vn 0.8287 0.4785 0.2903
vn 0.7638 0.4410 0.4714
vn 0.6694 0.3865 0.6344
vn 0.5494 0.3172 0.7730
vn 0.4082 0.2357 0.8819
vn 0.2514 0.1451 0.9569
vn 0.0849 0.0490 0.9952
vn -0.0849 -0.0490 0.9952
vn -0.2514 -0.1451 0.9569
vn -0.4082 -0.2357 0.8819
vn -0.5494 -0.3172 0.7730
vn -0.6694 -0.3865 0.6344
vn -0.7638 -0.4410 0.4714
vn -0.8287 -0.4785 0.2903
vn -0.8619 -0.4976 0.0980
vn -0.8619 -0.4976 -0.0980
vn -0.8287 -0.4785 -0.2903
vn -0.7638 -0.4410 -0.4714
vn -0.6694 -0.3865 -0.6344
vn -0.5494 -0.3172 -0.7730
vn -0.4082 -0.2357 -0.8819
vn -0.5000 0.8660 0.0000
vn -0.2514 -0.1451 -0.9569
vn -0.0849 -0.0490 -0.9952
vn 0.5000 -0.8660 0.0000
usemtl RouterMaterial
s off
f 1//1 2//1 4//1 3//1
f 3//2 4//2 6//2 5//2
f 5//3 6//3 8//3 7//3
f 7//4 8//4 10//4 9//4
f 9//5 10//5 12//5 11//5
f 11//6 12//6 14//6 13//6
f 13//7 14//7 16//7 15//7
f 15//8 16//8 18//8 17//8
f 17//9 18//9 20//9 19//9
f 19//10 20//10 22//10 21//10
f 21//11 22//11 24//11 23//11
f 23//12 24//12 26//12 25//12
f 25//13 26//13 28//13 27//13
f 27//14 28//14 30//14 29//14
f 29//15 30//15 32//15 31//15
f 31//16 32//16 34//16 33//16
f 33//17 34//17 36//17 35//17
f 35//18 36//18 38//18 37//18
f 37//19 38//19 40//19 39//19
f 39//20 40//20 42//20 41//20
f 41//21 42//21 44//21 43//21
f 43//22 44//22 46//22 45//22
f 45//23 46//23 48//23 47//23
f 47//24 48//24 50//24 49//24
f 49//25 50//25 52//25 51//25
f 51//26 52//26 54//26 53//26
f 53//27 54//27 56//27 55//27
f 55//28 56//28 58//28 57//28
f 57//29 58//29 60//29 59//29
f 59//30 60//30 62//30 61//30
f 4//31 2//31 64//31 62//31 60//31 58//31 56//31 54//31 52//31 50//31 48//31 46//31 44//31 42//31 40//31 38//31 36//31 34//31 32//31 30//31 28//31 26//31 24//31 22//31 20//31 18//31 16//31 14//31 12//31 10//31 8//31 6//31
f 61//32 62//32 64//32 63//32
f 63//33 64//33 2//33 1//33
f 1//34 3//34 5//34 7//34 9//34 11//34 13//34 15//34 17//34 19//34 21//34 23//34 25//34 27//34 29//34 31//34 33//34 35//34 37//34 39//34 41//34 43//34 45//34 47//34 49//34 51//34 53//34 55//34 57//34 59//34 61//34 63//34
f 65//35 66//35 67//35 68//35
f 69//36 72//36 71//36 70//36
f 65//37 69//37 70//37 66//37
f 66//38 70//38 71//38 67//38
f 67//39 71//39 72//39 68//39
f 69//40 65//40 68//40 72//40
f 73//41 74//41 76//41 75//41
f 75//42 76//42 78//42 77//42
f 77//43 78//43 80//43 79//43
f 79//44 80//44 82//44 81//44
f 81//45 82//45 84//45 83//45
f 83//46 84//46 86//46 85//46
f 85//47 86//47 88//47 87//47
f 87//48 88//48 90//48 89//48
f 89//49 90//49 92//49 91//49
f 91//50 92//50 94//50 93//50
f 93//51 94//51 96//51 95//51
f 95//52 96//52 98//52 97//52
f 97//53 98//53 100//53 99//53
f 99//54 100//54 102//54 101//54
f 101//55 102//55 104//55 103//55
f 103//56 104//56 106//56 105//56
f 105//57 106//57 108//57 107//57
f 107//58 108//58 110//58 109//58
f 109//59 110//59 112//59 111//59
f 111//60 112//60 114//60 113//60
f 113//61 114//61 116//61 115//61
f 115//62 116//62 118//62 117//62
f 117//63 118//63 120//63 119//63
f 119//64 120//64 122//64 121//64
f 121//65 122//65 124//65 123//65
f 123//66 124//66 126//66 125//66
f 125//67 126//67 128//67 127//67
f 127//68 128//68 130//68 129//68
f 129//69 130//69 132//69 131//69
f 131//70 132//70 134//70 133//70
f 76//71 74//71 136//71 134//71 132//71 130//71 128//71 126//71 124//71 122//71 120//71 118//71 116//71 114//71 112//71 110//71 108//71 106//71 104//71 102//71 100//71 98//71 96//71 94//71 92//71 90//71 88//71 86//71 84//71 82//71 80//71 78//71
f 133//72 134//72 136//72 135//72
f 135//73 136//73 74//73 73//73
f 73//74 75//74 77//74 79//74 81//74 83//74 85//74 87//74 89//74 91//74 93//74 95//74 97//74 99//74 101//74 103//74 105//74 107//74 109//74 111//74 113//74 115//74 117//74 119//74 121//74 123//74 125//74 127//74 129//74 131//74 133//74 135//74
